<mxfile host="Electron" modified="2024-01-26T12:57:07.251Z" agent="Mozilla/5.0 (Macintosh; Intel Mac OS X 10_15_7) AppleWebKit/537.36 (KHTML, like Gecko) draw.io/22.1.21 Chrome/120.0.6099.109 Electron/28.1.0 Safari/537.36" etag="jEt8MSSjXPbT5wMjsT5b" version="22.1.21" type="device">
  <diagram name="Page-1" id="NzShozarBWiy2gvwToMP">
    <mxGraphModel dx="371" dy="208" grid="1" gridSize="10" guides="1" tooltips="1" connect="1" arrows="1" fold="1" page="1" pageScale="1" pageWidth="1000" pageHeight="700" math="0" shadow="0">
      <root>
        <mxCell id="0" />
        <mxCell id="1" parent="0" />
        <mxCell id="4jknqWgJX6RQcF_Xhvkh-16" style="edgeStyle=orthogonalEdgeStyle;shape=connector;rounded=0;orthogonalLoop=1;jettySize=auto;html=1;exitX=1;exitY=0.5;exitDx=0;exitDy=0;entryX=0;entryY=0.5;entryDx=0;entryDy=0;labelBackgroundColor=default;strokeColor=default;strokeWidth=3;align=center;verticalAlign=middle;fontFamily=Helvetica;fontSize=11;fontColor=default;endArrow=none;endFill=0;" edge="1" parent="1" source="4jknqWgJX6RQcF_Xhvkh-1" target="4jknqWgJX6RQcF_Xhvkh-2">
          <mxGeometry relative="1" as="geometry" />
        </mxCell>
        <mxCell id="4jknqWgJX6RQcF_Xhvkh-1" value="" style="rounded=0;whiteSpace=wrap;html=1;fillColor=#eeeeee;strokeColor=#36393d;" vertex="1" parent="1">
          <mxGeometry x="150" y="240" width="120" height="20" as="geometry" />
        </mxCell>
        <mxCell id="4jknqWgJX6RQcF_Xhvkh-2" value="" style="rounded=0;whiteSpace=wrap;html=1;fillColor=#eeeeee;strokeColor=#36393d;" vertex="1" parent="1">
          <mxGeometry x="300" y="240" width="120" height="20" as="geometry" />
        </mxCell>
        <mxCell id="4jknqWgJX6RQcF_Xhvkh-3" value="" style="rounded=0;whiteSpace=wrap;html=1;fillColor=#eeeeee;strokeColor=#36393d;" vertex="1" parent="1">
          <mxGeometry x="440" y="240" width="120" height="20" as="geometry" />
        </mxCell>
        <mxCell id="4jknqWgJX6RQcF_Xhvkh-9" style="edgeStyle=orthogonalEdgeStyle;rounded=0;orthogonalLoop=1;jettySize=auto;html=1;exitX=1;exitY=0.5;exitDx=0;exitDy=0;entryX=0;entryY=0.5;entryDx=0;entryDy=0;endArrow=none;endFill=0;strokeWidth=3;" edge="1" parent="1" source="4jknqWgJX6RQcF_Xhvkh-4" target="4jknqWgJX6RQcF_Xhvkh-5">
          <mxGeometry relative="1" as="geometry" />
        </mxCell>
        <mxCell id="4jknqWgJX6RQcF_Xhvkh-4" value="" style="rounded=0;whiteSpace=wrap;html=1;fillColor=#eeeeee;strokeColor=#36393d;" vertex="1" parent="1">
          <mxGeometry x="150" y="300" width="10" height="20" as="geometry" />
        </mxCell>
        <mxCell id="4jknqWgJX6RQcF_Xhvkh-11" style="edgeStyle=orthogonalEdgeStyle;shape=connector;rounded=0;orthogonalLoop=1;jettySize=auto;html=1;exitX=1;exitY=0.5;exitDx=0;exitDy=0;entryX=0;entryY=0.5;entryDx=0;entryDy=0;labelBackgroundColor=default;strokeColor=default;strokeWidth=3;align=center;verticalAlign=middle;fontFamily=Helvetica;fontSize=11;fontColor=default;endArrow=none;endFill=0;" edge="1" parent="1" source="4jknqWgJX6RQcF_Xhvkh-5" target="4jknqWgJX6RQcF_Xhvkh-6">
          <mxGeometry relative="1" as="geometry" />
        </mxCell>
        <mxCell id="4jknqWgJX6RQcF_Xhvkh-5" value="" style="rounded=0;whiteSpace=wrap;html=1;fillColor=#eeeeee;strokeColor=#36393d;" vertex="1" parent="1">
          <mxGeometry x="240" y="300" width="10" height="20" as="geometry" />
        </mxCell>
        <mxCell id="4jknqWgJX6RQcF_Xhvkh-12" style="edgeStyle=orthogonalEdgeStyle;shape=connector;rounded=0;orthogonalLoop=1;jettySize=auto;html=1;exitX=1;exitY=0.5;exitDx=0;exitDy=0;entryX=0;entryY=0.5;entryDx=0;entryDy=0;labelBackgroundColor=default;strokeColor=default;strokeWidth=3;align=center;verticalAlign=middle;fontFamily=Helvetica;fontSize=11;fontColor=default;endArrow=none;endFill=0;" edge="1" parent="1" source="4jknqWgJX6RQcF_Xhvkh-6" target="4jknqWgJX6RQcF_Xhvkh-7">
          <mxGeometry relative="1" as="geometry" />
        </mxCell>
        <mxCell id="4jknqWgJX6RQcF_Xhvkh-6" value="" style="rounded=0;whiteSpace=wrap;html=1;fillColor=#eeeeee;strokeColor=#36393d;" vertex="1" parent="1">
          <mxGeometry x="290" y="300" width="20" height="20" as="geometry" />
        </mxCell>
        <mxCell id="4jknqWgJX6RQcF_Xhvkh-14" style="edgeStyle=orthogonalEdgeStyle;shape=connector;rounded=0;orthogonalLoop=1;jettySize=auto;html=1;exitX=1;exitY=0.5;exitDx=0;exitDy=0;entryX=0;entryY=0.5;entryDx=0;entryDy=0;labelBackgroundColor=default;strokeColor=default;strokeWidth=3;align=center;verticalAlign=middle;fontFamily=Helvetica;fontSize=11;fontColor=default;endArrow=none;endFill=0;" edge="1" parent="1" source="4jknqWgJX6RQcF_Xhvkh-7" target="4jknqWgJX6RQcF_Xhvkh-8">
          <mxGeometry relative="1" as="geometry" />
        </mxCell>
        <mxCell id="4jknqWgJX6RQcF_Xhvkh-7" value="" style="rounded=0;whiteSpace=wrap;html=1;fillColor=#eeeeee;strokeColor=#36393d;" vertex="1" parent="1">
          <mxGeometry x="380" y="300" width="10" height="20" as="geometry" />
        </mxCell>
        <mxCell id="4jknqWgJX6RQcF_Xhvkh-8" value="" style="rounded=0;whiteSpace=wrap;html=1;fillColor=#eeeeee;strokeColor=#36393d;" vertex="1" parent="1">
          <mxGeometry x="540" y="300" width="20" height="20" as="geometry" />
        </mxCell>
        <mxCell id="4jknqWgJX6RQcF_Xhvkh-15" style="edgeStyle=orthogonalEdgeStyle;shape=connector;rounded=0;orthogonalLoop=1;jettySize=auto;html=1;exitX=1;exitY=0.5;exitDx=0;exitDy=0;entryX=-0.019;entryY=0.583;entryDx=0;entryDy=0;entryPerimeter=0;labelBackgroundColor=default;strokeColor=default;strokeWidth=3;align=center;verticalAlign=middle;fontFamily=Helvetica;fontSize=11;fontColor=default;endArrow=none;endFill=0;" edge="1" parent="1" source="4jknqWgJX6RQcF_Xhvkh-2" target="4jknqWgJX6RQcF_Xhvkh-3">
          <mxGeometry relative="1" as="geometry" />
        </mxCell>
        <mxCell id="4jknqWgJX6RQcF_Xhvkh-17" value="Task 1" style="text;strokeColor=none;align=center;fillColor=none;html=1;verticalAlign=middle;whiteSpace=wrap;rounded=0;fontSize=11;fontFamily=Helvetica;fontColor=default;" vertex="1" parent="1">
          <mxGeometry x="100" y="235" width="60" height="30" as="geometry" />
        </mxCell>
        <mxCell id="4jknqWgJX6RQcF_Xhvkh-18" value="Task 2" style="text;strokeColor=none;align=center;fillColor=none;html=1;verticalAlign=middle;whiteSpace=wrap;rounded=0;fontSize=11;fontFamily=Helvetica;fontColor=default;" vertex="1" parent="1">
          <mxGeometry x="100" y="290" width="60" height="30" as="geometry" />
        </mxCell>
        <mxCell id="4jknqWgJX6RQcF_Xhvkh-19" value="Active on cpu" style="text;strokeColor=none;align=center;fillColor=none;html=1;verticalAlign=middle;whiteSpace=wrap;rounded=0;fontSize=11;fontFamily=Helvetica;fontColor=default;" vertex="1" parent="1">
          <mxGeometry x="130" y="265" width="70" height="30" as="geometry" />
        </mxCell>
        <mxCell id="4jknqWgJX6RQcF_Xhvkh-20" style="rounded=0;orthogonalLoop=1;jettySize=auto;html=1;exitX=1;exitY=0.5;exitDx=0;exitDy=0;entryX=0.65;entryY=1;entryDx=0;entryDy=0;entryPerimeter=0;labelBackgroundColor=default;strokeColor=#b85450;strokeWidth=1;align=center;verticalAlign=middle;fontFamily=Helvetica;fontSize=11;fontColor=default;endArrow=classicThin;endFill=1;fillColor=#f8cecc;gradientColor=#ea6b66;" edge="1" parent="1" source="4jknqWgJX6RQcF_Xhvkh-19" target="4jknqWgJX6RQcF_Xhvkh-1">
          <mxGeometry relative="1" as="geometry" />
        </mxCell>
        <mxCell id="4jknqWgJX6RQcF_Xhvkh-21" value="blocked" style="text;strokeColor=none;align=center;fillColor=none;html=1;verticalAlign=middle;whiteSpace=wrap;rounded=0;fontSize=11;fontFamily=Helvetica;fontColor=default;" vertex="1" parent="1">
          <mxGeometry x="260" y="265" width="40" height="30" as="geometry" />
        </mxCell>
        <mxCell id="4jknqWgJX6RQcF_Xhvkh-22" style="rounded=0;orthogonalLoop=1;jettySize=auto;html=1;exitX=1;exitY=0.5;exitDx=0;exitDy=0;labelBackgroundColor=default;strokeColor=#b85450;strokeWidth=1;align=center;verticalAlign=middle;fontFamily=Helvetica;fontSize=11;fontColor=default;endArrow=classicThin;endFill=1;fillColor=#f8cecc;gradientColor=#ea6b66;" edge="1" parent="1" source="4jknqWgJX6RQcF_Xhvkh-21">
          <mxGeometry relative="1" as="geometry">
            <mxPoint x="340" y="310" as="targetPoint" />
          </mxGeometry>
        </mxCell>
      </root>
    </mxGraphModel>
  </diagram>
</mxfile>
